<svg version="1.1" id="Layer_1" xmlns="http://www.w3.org/2000/svg" xmlns:xlink="http://www.w3.org/1999/xlink" x="0px" y="0px"
	 width="100%" viewBox="0 0 512 512" enable-background="new 0 0 512 512" xml:space="preserve">
<path fill="#E2E5E7" opacity="1.000000" stroke="none" 
	d="
M457.000000,513.000000 
	C345.312439,513.000000 233.624878,513.000000 121.373085,512.844177 
	C120.539238,512.792236 120.269623,512.896118 120.000000,513.000000 
	C119.555557,513.000000 119.111107,513.000000 118.278381,512.656555 
	C115.836510,510.993652 113.787941,509.666321 111.728485,508.356079 
	C103.103157,502.868500 97.516098,495.220734 97.114578,484.893829 
	C96.649437,472.930511 97.046997,460.933624 97.531174,448.968262 
	C198.594437,448.990021 299.196564,448.994904 399.798706,448.999481 
	C400.464935,448.999512 401.132599,449.023285 401.797180,448.989227 
	C410.034851,448.567261 416.621094,442.155182 416.947601,433.937592 
	C417.125732,429.453644 416.848419,424.951660 416.756165,420.022736 
	C416.824158,417.259430 416.988861,414.931183 416.989532,412.602905 
	C417.004303,362.132355 417.001801,311.661774 417.000122,261.191223 
	C416.999634,246.536438 411.458649,240.999969 396.790863,240.999786 
	C299.014557,240.998566 201.238281,241.000183 103.461990,240.992279 
	C101.299744,240.992096 99.137512,240.889847 96.982849,240.376953 
	C96.993622,170.927383 97.080139,101.935890 96.930229,32.944916 
	C96.899971,19.018902 103.657845,9.855462 115.241661,3.377145 
	C116.279610,2.796663 117.086044,1.802203 118.000000,1.000002 
	C118.444443,1.000000 118.888893,1.000000 119.751984,1.161360 
	C120.447090,1.215147 120.723541,1.107574 121.000000,1.000001 
	C198.020889,1.000000 275.041779,1.000000 352.539185,1.468610 
	C353.010223,32.870792 352.991638,63.804363 353.004028,94.737930 
	C353.012085,114.807274 365.744171,128.072647 386.003601,129.435974 
	C386.860596,130.813385 387.534668,131.974747 388.451935,132.893250 
	C417.917816,162.399124 447.399170,191.889557 476.923889,221.336533 
	C478.037659,222.447372 479.605621,223.102829 480.976624,224.440781 
	C480.994232,310.307312 480.930237,395.703705 481.067108,481.099701 
	C481.089417,495.010864 474.322449,504.155670 462.754425,510.624634 
	C461.717712,511.204407 460.912659,512.198425 460.000000,513.000000 
	C459.555542,513.000000 459.111115,513.000000 458.247986,512.838684 
	C457.552856,512.784912 457.276428,512.892456 457.000000,513.000000 
z"/>
<path fill="#FFFFFF" opacity="1.000000" stroke="none" 
	d="
M117.531342,1.000002 
	C117.086044,1.802203 116.279610,2.796663 115.241661,3.377145 
	C103.657845,9.855462 96.899971,19.018902 96.930229,32.944916 
	C97.080139,101.935890 96.993622,170.927383 96.520050,240.445129 
	C79.904488,240.980789 63.759293,240.980316 47.614132,241.003174 
	C39.151226,241.015152 33.005730,247.130142 33.004200,255.570801 
	C32.994385,309.832367 32.995014,364.093964 33.003525,418.355530 
	C33.004852,426.821350 39.127926,432.968964 47.540474,432.999115 
	C64.015373,433.058136 80.490311,433.107788 96.975525,433.617249 
	C97.013901,439.032532 97.041977,443.991943 97.070045,448.951324 
	C97.046997,460.933624 96.649437,472.930511 97.114578,484.893829 
	C97.516098,495.220734 103.103157,502.868500 111.728485,508.356079 
	C113.787941,509.666321 115.836510,510.993652 117.945053,512.656555 
	C79.022881,513.000000 40.045761,513.000000 1.034321,513.000000 
	C1.034321,342.456360 1.034321,171.912689 1.034321,1.000000 
	C39.686779,1.000000 78.374733,1.000000 117.531342,1.000002 
z"/>
<path fill="#FFFFFF" opacity="1.000000" stroke="none" 
	d="
M460.468689,513.000000 
	C460.912659,512.198425 461.717712,511.204407 462.754425,510.624634 
	C474.322449,504.155670 481.089417,495.010864 481.067108,481.099701 
	C480.930237,395.703705 480.994232,310.307312 480.990540,223.975403 
	C480.993439,193.086441 481.012177,163.133102 480.962097,133.179901 
	C480.959198,131.435486 480.398987,129.692001 479.911133,127.671890 
	C439.111938,86.759239 398.496735,46.125744 357.900055,5.473777 
	C356.505310,4.077114 355.295807,2.495446 354.000000,1.000005 
	C406.967987,1.000000 459.935944,1.000000 512.951965,1.000000 
	C512.951965,171.666672 512.951965,342.333344 512.951965,513.000000 
	C495.582977,513.000000 478.260162,513.000000 460.468689,513.000000 
z"/>
<path fill="#B0B7BD" opacity="1.000000" stroke="none" 
	d="
M353.750000,1.000005 
	C355.295807,2.495446 356.505310,4.077114 357.900055,5.473777 
	C398.496735,46.125744 439.111938,86.759239 479.595978,127.960350 
	C477.501617,128.683731 475.535736,128.976730 473.569214,128.981064 
	C444.357544,129.045410 415.145752,129.071548 385.934021,129.106720 
	C365.744171,128.072647 353.012085,114.807274 353.004028,94.737930 
	C352.991638,63.804363 353.010223,32.870792 353.007874,1.468610 
	C353.000000,1.000000 353.500000,1.000000 353.750000,1.000005 
z"/>
<path fill="#FFFFFF" opacity="1.000000" stroke="none" 
	d="
M120.750000,1.000001 
	C120.723541,1.107574 120.447090,1.215147 120.085312,1.161360 
	C120.000000,1.000000 120.500000,1.000000 120.750000,1.000001 
z"/>
<path fill="#FFFFFF" opacity="1.000000" stroke="none" 
	d="
M120.250000,513.000000 
	C120.269623,512.896118 120.539238,512.792236 120.904427,512.844177 
	C121.000000,513.000000 120.500000,513.000000 120.250000,513.000000 
z"/>
<path fill="#FFFFFF" opacity="1.000000" stroke="none" 
	d="
M457.250000,513.000000 
	C457.276428,512.892456 457.552856,512.784912 457.914673,512.838684 
	C458.000000,513.000000 457.500000,513.000000 457.250000,513.000000 
z"/>
<path fill="#F15642" opacity="1.000000" stroke="none" 
	d="
M96.965233,433.161316 
	C80.490311,433.107788 64.015373,433.058136 47.540474,432.999115 
	C39.127926,432.968964 33.004852,426.821350 33.003525,418.355530 
	C32.995014,364.093964 32.994385,309.832367 33.004200,255.570801 
	C33.005730,247.130142 39.151226,241.015152 47.614132,241.003174 
	C63.759293,240.980316 79.904488,240.980789 96.512466,240.903397 
	C99.137512,240.889847 101.299744,240.992096 103.461990,240.992279 
	C201.238281,241.000183 299.014557,240.998566 396.790863,240.999786 
	C411.458649,240.999969 416.999634,246.536438 417.000122,261.191223 
	C417.001801,311.661774 417.004303,362.132355 416.989532,412.602905 
	C416.988861,414.931183 416.824158,417.259430 416.513489,420.306152 
	C412.758972,429.947632 407.942444,432.997620 397.273712,432.998108 
	C299.333344,433.002533 201.392975,432.999664 103.452599,433.007385 
	C101.290146,433.007568 99.127686,433.107758 96.965233,433.161316 
M210.512848,296.376953 
	C206.186401,296.428345 201.834671,296.204163 197.539658,296.598175 
	C191.649719,297.138458 188.919312,300.234009 188.904953,306.098846 
	C188.848328,329.243317 188.843445,352.388123 188.905624,375.532593 
	C188.922714,381.896362 191.713028,384.880219 197.932129,384.953949 
	C209.085815,385.086243 220.251373,385.201935 231.395721,384.833435 
	C240.638031,384.527771 248.923386,381.194397 255.833939,374.889648 
	C268.230255,363.580017 271.762146,349.134552 269.845459,333.132538 
	C267.460266,313.218842 251.997284,298.506134 231.966629,296.861359 
	C225.179611,296.304077 218.329391,296.516571 210.512848,296.376953 
M112.121544,295.226349 
	C105.563080,296.640350 102.998260,298.681427 102.965973,303.875031 
	C102.815796,328.038574 102.891853,352.203583 102.916183,376.368011 
	C102.917175,377.352783 103.026459,378.415375 103.402359,379.308228 
	C104.988258,383.074921 107.902397,385.142029 111.991348,384.866791 
	C115.883873,384.604797 118.756508,382.478271 119.121742,378.438965 
	C119.685349,372.205872 119.788071,365.931122 120.110031,359.176056 
	C127.198479,359.176056 133.996704,359.313568 140.787674,359.149689 
	C159.492279,358.698303 170.734161,348.090515 172.446671,329.447052 
	C174.028900,312.221954 162.628357,297.518494 145.458099,295.913879 
	C134.713013,294.909729 123.828941,295.392914 112.121544,295.226349 
M329.496368,313.061890 
	C333.991669,313.023590 338.506012,313.229614 342.977051,312.880493 
	C347.762268,312.506866 351.176483,308.657135 350.957550,304.233002 
	C350.720459,299.441498 347.829254,296.805786 343.243317,296.752625 
	C327.604645,296.571411 311.957825,296.420471 296.324921,296.757690 
	C290.430695,296.884888 288.185944,299.926544 288.087158,305.898529 
	C287.974274,312.724792 288.057678,319.554260 288.057678,326.382355 
	C288.057678,342.703156 288.008148,359.024170 288.085388,375.344604 
	C288.114685,381.529785 291.588440,385.059998 297.124573,384.927521 
	C301.942047,384.812225 304.824463,381.606140 304.907135,375.819580 
	C305.027527,367.390564 304.938049,358.958557 304.938049,350.125061 
	C307.551056,350.125061 309.515564,350.129211 311.480072,350.124329 
	C320.306030,350.102386 329.135376,350.214600 337.956512,349.996582 
	C342.362183,349.887665 345.647491,347.639832 346.510254,343.066223 
	C347.197998,339.420532 343.796478,335.050690 339.485870,333.994904 
	C337.260010,333.449768 334.881287,333.377502 332.569641,333.360413 
	C323.485626,333.293243 314.400757,333.332916 305.275116,333.332916 
	C305.275116,326.211334 305.275116,319.817169 305.275116,313.061890 
	C313.235291,313.061890 320.866486,313.061890 329.496368,313.061890 
z"/>
<path fill="#CAD1D8" opacity="1.000000" stroke="none" 
	d="
M96.975525,433.617218 
	C99.127686,433.107758 101.290146,433.007568 103.452599,433.007385 
	C201.392975,432.999664 299.333344,433.002533 397.273712,432.998108 
	C407.942444,432.997620 412.758972,429.947632 416.533813,420.741211 
	C416.848419,424.951660 417.125732,429.453644 416.947601,433.937592 
	C416.621094,442.155182 410.034851,448.567261 401.797180,448.989227 
	C401.132599,449.023285 400.464935,448.999512 399.798706,448.999481 
	C299.196564,448.994904 198.594437,448.990021 97.531174,448.968262 
	C97.041977,443.991943 97.013901,439.032532 96.975525,433.617218 
z"/>
<path fill="#CAD1D8" opacity="1.000000" stroke="none" 
	d="
M386.003601,129.435974 
	C415.145752,129.071548 444.357544,129.045410 473.569214,128.981064 
	C475.535736,128.976730 477.501617,128.683731 479.782959,128.236542 
	C480.398987,129.692001 480.959198,131.435486 480.962097,133.179901 
	C481.012177,163.133102 480.993439,193.086441 480.975830,223.505112 
	C479.605621,223.102829 478.037659,222.447372 476.923889,221.336533 
	C447.399170,191.889557 417.917816,162.399124 388.451935,132.893250 
	C387.534668,131.974747 386.860596,130.813385 386.003601,129.435974 
z"/>
<path fill="#FFFCFC" opacity="1.000000" stroke="none" 
	d="
M211.010452,296.377136 
	C218.329391,296.516571 225.179611,296.304077 231.966629,296.861359 
	C251.997284,298.506134 267.460266,313.218842 269.845459,333.132538 
	C271.762146,349.134552 268.230255,363.580017 255.833939,374.889648 
	C248.923386,381.194397 240.638031,384.527771 231.395721,384.833435 
	C220.251373,385.201935 209.085815,385.086243 197.932129,384.953949 
	C191.713028,384.880219 188.922714,381.896362 188.905624,375.532593 
	C188.843445,352.388123 188.848328,329.243317 188.904953,306.098846 
	C188.919312,300.234009 191.649719,297.138458 197.539658,296.598175 
	C201.834671,296.204163 206.186401,296.428345 211.010452,296.377136 
M205.823303,348.499878 
	C205.823303,355.268494 205.823303,362.037109 205.823303,369.288574 
	C213.033798,369.288574 219.648819,369.435364 226.255157,369.258301 
	C240.470230,368.877350 249.477707,361.334045 252.611084,347.421539 
	C256.175110,331.596924 248.012375,315.730133 233.916092,313.220276 
	C224.897705,311.614563 215.502396,312.125916 205.823227,311.666656 
	C205.823227,324.274902 205.823227,335.887421 205.823303,348.499878 
z"/>
<path fill="#FFFCFC" opacity="1.000000" stroke="none" 
	d="
M112.564392,295.217529 
	C123.828941,295.392914 134.713013,294.909729 145.458099,295.913879 
	C162.628357,297.518494 174.028900,312.221954 172.446671,329.447052 
	C170.734161,348.090515 159.492279,358.698303 140.787674,359.149689 
	C133.996704,359.313568 127.198479,359.176056 120.110031,359.176056 
	C119.788071,365.931122 119.685349,372.205872 119.121742,378.438965 
	C118.756508,382.478271 115.883873,384.604797 111.991348,384.866791 
	C107.902397,385.142029 104.988258,383.074921 103.402359,379.308228 
	C103.026459,378.415375 102.917175,377.352783 102.916183,376.368011 
	C102.891853,352.203583 102.815796,328.038574 102.965973,303.875031 
	C102.998260,298.681427 105.563080,296.640350 112.564392,295.217529 
M150.283600,339.922394 
	C160.233368,332.263641 157.330200,315.017700 145.212234,312.469025 
	C137.183426,310.780365 128.511612,312.149048 120.084808,312.149048 
	C120.084808,322.357941 120.084808,332.576569 120.084808,343.208588 
	C126.558800,343.208588 132.706696,343.537201 138.796783,343.085785 
	C142.472260,342.813354 146.057892,341.329071 150.283600,339.922394 
z"/>
<path fill="#FFFBFB" opacity="1.000000" stroke="none" 
	d="
M328.997009,313.061890 
	C320.866486,313.061890 313.235291,313.061890 305.275116,313.061890 
	C305.275116,319.817169 305.275116,326.211334 305.275116,333.332916 
	C314.400757,333.332916 323.485626,333.293243 332.569641,333.360413 
	C334.881287,333.377502 337.260010,333.449768 339.485870,333.994904 
	C343.796478,335.050690 347.197998,339.420532 346.510254,343.066223 
	C345.647491,347.639832 342.362183,349.887665 337.956512,349.996582 
	C329.135376,350.214600 320.306030,350.102386 311.480072,350.124329 
	C309.515564,350.129211 307.551056,350.125061 304.938049,350.125061 
	C304.938049,358.958557 305.027527,367.390564 304.907135,375.819580 
	C304.824463,381.606140 301.942047,384.812225 297.124573,384.927521 
	C291.588440,385.059998 288.114685,381.529785 288.085388,375.344604 
	C288.008148,359.024170 288.057678,342.703156 288.057678,326.382355 
	C288.057678,319.554260 287.974274,312.724792 288.087158,305.898529 
	C288.185944,299.926544 290.430695,296.884888 296.324921,296.757690 
	C311.957825,296.420471 327.604645,296.571411 343.243317,296.752625 
	C347.829254,296.805786 350.720459,299.441498 350.957550,304.233002 
	C351.176483,308.657135 347.762268,312.506866 342.977051,312.880493 
	C338.506012,313.229614 333.991669,313.023590 328.997009,313.061890 
z"/>
<path fill="#F15743" opacity="1.000000" stroke="none" 
	d="
M205.823273,347.999878 
	C205.823227,335.887421 205.823227,324.274902 205.823227,311.666656 
	C215.502396,312.125916 224.897705,311.614563 233.916092,313.220276 
	C248.012375,315.730133 256.175110,331.596924 252.611084,347.421539 
	C249.477707,361.334045 240.470230,368.877350 226.255157,369.258301 
	C219.648819,369.435364 213.033798,369.288574 205.823303,369.288574 
	C205.823303,362.037109 205.823303,355.268494 205.823273,347.999878 
z"/>
<path fill="#F15845" opacity="1.000000" stroke="none" 
	d="
M149.983734,340.155823 
	C146.057892,341.329071 142.472260,342.813354 138.796783,343.085785 
	C132.706696,343.537201 126.558800,343.208588 120.084808,343.208588 
	C120.084808,332.576569 120.084808,322.357941 120.084808,312.149048 
	C128.511612,312.149048 137.183426,310.780365 145.212234,312.469025 
	C157.330200,315.017700 160.233368,332.263641 149.983734,340.155823 
z"/>
</svg>