<svg version="1.1" id="Layer_1" xmlns="http://www.w3.org/2000/svg" xmlns:xlink="http://www.w3.org/1999/xlink" x="0px" y="0px"
	 width="100%" viewBox="0 0 512 512" enable-background="new 0 0 512 512" xml:space="preserve">
<path fill="#E2E5E7" opacity="1.000000" stroke="none" 
	d="
M457.000000,513.000000 
	C345.312439,513.000000 233.624878,513.000000 121.373085,512.844177 
	C120.539238,512.792236 120.269623,512.896118 120.000000,513.000000 
	C119.555557,513.000000 119.111107,513.000000 118.278381,512.656555 
	C115.836510,510.993652 113.787941,509.666321 111.728485,508.356079 
	C103.103157,502.868500 97.516098,495.220734 97.114578,484.893829 
	C96.649437,472.930511 97.046997,460.933624 97.531174,448.968262 
	C198.594299,448.990021 299.196320,448.994843 399.798309,448.999390 
	C400.464539,448.999420 401.132233,449.023285 401.796814,448.989227 
	C410.034576,448.567413 416.620941,442.155518 416.947571,433.938019 
	C417.125824,429.454102 416.848480,424.952087 416.756378,420.023132 
	C416.824463,417.259766 416.989136,414.931519 416.989807,412.603241 
	C417.004578,362.132599 417.002075,311.661926 417.000397,261.191284 
	C416.999908,246.536316 411.458923,240.999649 396.791382,240.999466 
	C299.014923,240.998260 201.238449,240.999908 103.461975,240.992004 
	C101.299721,240.991837 99.137482,240.889648 96.982826,240.376801 
	C96.993614,170.927261 97.080124,101.935822 96.930222,32.944889 
	C96.899971,19.018881 103.657860,9.855448 115.241669,3.377141 
	C116.279617,2.796663 117.086052,1.802204 118.000000,1.000002 
	C118.444443,1.000000 118.888893,1.000000 119.751984,1.161360 
	C120.447090,1.215147 120.723541,1.107574 121.000000,1.000001 
	C198.020889,1.000000 275.041779,1.000000 352.539185,1.468610 
	C353.010223,32.870792 352.991638,63.804363 353.004028,94.737930 
	C353.012085,114.807274 365.744171,128.072647 386.003601,129.435974 
	C386.860596,130.813385 387.534668,131.974747 388.451935,132.893250 
	C417.917816,162.399124 447.399170,191.889557 476.923889,221.336533 
	C478.037659,222.447372 479.605621,223.102829 480.976624,224.440781 
	C480.994232,310.307312 480.930237,395.703705 481.067108,481.099701 
	C481.089417,495.010864 474.322449,504.155670 462.754425,510.624634 
	C461.717712,511.204407 460.912659,512.198425 460.000000,513.000000 
	C459.555542,513.000000 459.111115,513.000000 458.247986,512.838684 
	C457.552856,512.784912 457.276428,512.892456 457.000000,513.000000 
z"/>
<path fill="#FFFFFF" opacity="1.000000" stroke="none" 
	d="
M97.070045,448.951324 
	C97.046997,460.933624 96.649437,472.930511 97.114578,484.893829 
	C97.516098,495.220734 103.103157,502.868500 111.728485,508.356079 
	C113.787941,509.666321 115.836510,510.993652 117.945053,512.656555 
	C79.022881,513.000000 40.045761,513.000000 1.034321,513.000000 
	C1.034321,342.456360 1.034321,171.912689 1.034321,1.000000 
	C39.686779,1.000000 78.374733,1.000000 117.531342,1.000002 
	C117.086052,1.802204 116.279617,2.796663 115.241669,3.377141 
	C103.657860,9.855448 96.899971,19.018881 96.930222,32.944889 
	C97.080124,101.935822 96.993614,170.927261 96.520020,240.444946 
	C79.904381,240.980560 63.759113,240.980103 47.613884,241.002960 
	C39.150970,241.014954 33.005497,247.130005 33.003967,255.570786 
	C32.994152,309.832397 32.994781,364.094025 33.003292,418.355652 
	C33.004620,426.821411 39.127937,432.969208 47.540344,432.999359 
	C64.015259,433.058380 80.490211,433.107971 96.975479,433.617371 
	C97.013893,439.032623 97.041969,443.991974 97.070045,448.951324 
z"/>
<path fill="#FFFFFF" opacity="1.000000" stroke="none" 
	d="
M460.468689,513.000000 
	C460.912659,512.198425 461.717712,511.204407 462.754425,510.624634 
	C474.322449,504.155670 481.089417,495.010864 481.067108,481.099701 
	C480.930237,395.703705 480.994232,310.307312 480.990540,223.975403 
	C480.993439,193.086441 481.012177,163.133102 480.962097,133.179901 
	C480.959198,131.435486 480.398987,129.692001 479.911133,127.671890 
	C439.111938,86.759239 398.496735,46.125744 357.900055,5.473777 
	C356.505310,4.077114 355.295807,2.495446 354.000000,1.000005 
	C406.967987,1.000000 459.935944,1.000000 512.951965,1.000000 
	C512.951965,171.666672 512.951965,342.333344 512.951965,513.000000 
	C495.582977,513.000000 478.260162,513.000000 460.468689,513.000000 
z"/>
<path fill="#B0B7BD" opacity="1.000000" stroke="none" 
	d="
M353.750000,1.000005 
	C355.295807,2.495446 356.505310,4.077114 357.900055,5.473777 
	C398.496735,46.125744 439.111938,86.759239 479.595978,127.960350 
	C477.501617,128.683731 475.535736,128.976730 473.569214,128.981064 
	C444.357544,129.045410 415.145752,129.071548 385.934021,129.106720 
	C365.744171,128.072647 353.012085,114.807274 353.004028,94.737930 
	C352.991638,63.804363 353.010223,32.870792 353.007874,1.468610 
	C353.000000,1.000000 353.500000,1.000000 353.750000,1.000005 
z"/>
<path fill="#FFFFFF" opacity="1.000000" stroke="none" 
	d="
M120.750000,1.000001 
	C120.723541,1.107574 120.447090,1.215147 120.085312,1.161360 
	C120.000000,1.000000 120.500000,1.000000 120.750000,1.000001 
z"/>
<path fill="#FFFFFF" opacity="1.000000" stroke="none" 
	d="
M120.250000,513.000000 
	C120.269623,512.896118 120.539238,512.792236 120.904427,512.844177 
	C121.000000,513.000000 120.500000,513.000000 120.250000,513.000000 
z"/>
<path fill="#FFFFFF" opacity="1.000000" stroke="none" 
	d="
M457.250000,513.000000 
	C457.276428,512.892456 457.552856,512.784912 457.914673,512.838684 
	C458.000000,513.000000 457.500000,513.000000 457.250000,513.000000 
z"/>
<path fill="#F15642" opacity="1.000000" stroke="none" 
	d="
M96.965149,433.161438 
	C80.490211,433.107971 64.015259,433.058380 47.540344,432.999359 
	C39.127937,432.969208 33.004620,426.821411 33.003292,418.355652 
	C32.994781,364.094025 32.994152,309.832397 33.003967,255.570786 
	C33.005497,247.130005 39.150970,241.014954 47.613884,241.002960 
	C63.759113,240.980103 79.904381,240.980560 96.512436,240.903198 
	C99.137482,240.889648 101.299721,240.991837 103.461975,240.992004 
	C201.238449,240.999908 299.014923,240.998260 396.791382,240.999466 
	C411.458923,240.999649 416.999908,246.536316 417.000397,261.191284 
	C417.002075,311.661926 417.004578,362.132599 416.989807,412.603241 
	C416.989136,414.931519 416.824463,417.259766 416.513733,420.306549 
	C412.758972,429.948120 407.942719,432.997833 397.273712,432.998322 
	C299.333313,433.002777 201.392929,432.999969 103.452530,433.007690 
	C101.290070,433.007874 99.127609,433.107971 96.965149,433.161438 
M192.615036,353.499664 
	C192.692276,361.325653 192.545761,369.162628 192.928421,376.973663 
	C193.168106,381.866180 196.977219,385.168671 201.479370,384.913696 
	C206.117294,384.651062 208.822922,382.075470 209.229019,377.372009 
	C209.443314,374.890045 209.526794,372.392761 209.567123,369.900757 
	C209.622528,366.477142 209.580978,363.051971 209.580978,359.047943 
	C218.001862,359.047943 225.642883,359.307495 233.260422,358.994995 
	C250.171188,358.301331 261.826019,345.923950 262.426605,328.381042 
	C263.012878,311.257660 252.164215,297.537354 235.783051,295.952576 
	C225.542526,294.961823 215.164169,295.310852 204.846313,295.229462 
	C195.609100,295.156616 192.655533,298.181030 192.627869,307.519775 
	C192.583466,322.512970 192.615768,337.506378 192.615036,353.499664 
M106.785805,377.448883 
	C108.236435,382.615112 111.438263,385.266052 115.800117,384.912292 
	C120.325180,384.545288 122.942467,381.523743 123.221840,375.922668 
	C123.428848,371.772644 123.489998,367.598053 123.287003,363.450470 
	C123.128372,360.209320 124.231354,359.049347 127.535294,359.135742 
	C134.017258,359.305145 140.518158,359.300903 146.994949,359.008270 
	C163.674988,358.254608 175.414749,346.259186 176.096893,329.517426 
	C176.846130,311.128693 166.429413,297.507050 149.305267,295.924896 
	C138.246414,294.903137 127.044182,295.180969 115.911331,295.312042 
	C109.787102,295.384125 106.485359,298.881927 106.458878,305.265106 
	C106.360199,329.052277 106.529549,352.840546 106.785805,377.448883 
M319.663361,344.500061 
	C319.663361,333.932770 319.663361,323.365479 319.663361,312.183044 
	C327.748444,312.183044 334.913147,312.502045 342.033173,312.075684 
	C347.143219,311.769684 349.676697,308.024109 349.071472,303.115784 
	C348.526276,298.694061 345.374268,296.110504 339.709717,296.082916 
	C320.223663,295.987976 300.736877,296.038300 281.250427,296.071411 
	C280.103882,296.073364 278.919861,296.284943 277.818420,296.615784 
	C273.743774,297.839783 271.803528,300.761475 272.102295,304.884705 
	C272.382660,308.754089 274.469452,311.476746 278.508698,312.045929 
	C281.131592,312.415527 283.809631,312.480255 286.465088,312.514404 
	C291.733643,312.582245 297.003632,312.534454 302.774811,312.534454 
	C302.774811,315.046326 302.774536,316.840515 302.774811,318.634705 
	C302.777802,337.788116 302.694458,356.942139 302.826874,376.094635 
	C302.879303,383.679199 309.073212,387.638550 315.236450,384.371185 
	C319.075104,382.336121 319.601074,378.709076 319.632904,374.979431 
	C319.716827,365.153595 319.662415,355.326599 319.663361,344.500061 
z"/>
<path fill="#CAD1D8" opacity="1.000000" stroke="none" 
	d="
M96.975479,433.617371 
	C99.127609,433.107971 101.290070,433.007874 103.452530,433.007690 
	C201.392929,432.999969 299.333313,433.002777 397.273712,432.998322 
	C407.942719,432.997833 412.758972,429.948120 416.533936,420.741638 
	C416.848480,424.952087 417.125824,429.454102 416.947571,433.938019 
	C416.620941,442.155518 410.034576,448.567413 401.796814,448.989227 
	C401.132233,449.023285 400.464539,448.999420 399.798309,448.999390 
	C299.196320,448.994843 198.594299,448.990021 97.531174,448.968262 
	C97.041969,443.991974 97.013893,439.032623 96.975479,433.617371 
z"/>
<path fill="#CAD1D8" opacity="1.000000" stroke="none" 
	d="
M386.003601,129.435974 
	C415.145752,129.071548 444.357544,129.045410 473.569214,128.981064 
	C475.535736,128.976730 477.501617,128.683731 479.782959,128.236542 
	C480.398987,129.692001 480.959198,131.435486 480.962097,133.179901 
	C481.012177,163.133102 480.993439,193.086441 480.975830,223.505112 
	C479.605621,223.102829 478.037659,222.447372 476.923889,221.336533 
	C447.399170,191.889557 417.917816,162.399124 388.451935,132.893250 
	C387.534668,131.974747 386.860596,130.813385 386.003601,129.435974 
z"/>
<path fill="#FFFCFC" opacity="1.000000" stroke="none" 
	d="
M192.615356,352.999695 
	C192.615768,337.506378 192.583466,322.512970 192.627869,307.519775 
	C192.655533,298.181030 195.609100,295.156616 204.846313,295.229462 
	C215.164169,295.310852 225.542526,294.961823 235.783051,295.952576 
	C252.164215,297.537354 263.012878,311.257660 262.426605,328.381042 
	C261.826019,345.923950 250.171188,358.301331 233.260422,358.994995 
	C225.642883,359.307495 218.001862,359.047943 209.580978,359.047943 
	C209.580978,363.051971 209.622528,366.477142 209.567123,369.900757 
	C209.526794,372.392761 209.443314,374.890045 209.229019,377.372009 
	C208.822922,382.075470 206.117294,384.651062 201.479370,384.913696 
	C196.977219,385.168671 193.168106,381.866180 192.928421,376.973663 
	C192.545761,369.162628 192.692276,361.325653 192.615356,352.999695 
M244.835907,333.940369 
	C248.155838,323.681488 243.416519,313.236725 234.022034,312.110199 
	C226.201859,311.172455 218.179810,311.918091 210.004761,311.918091 
	C210.004761,322.225128 210.004761,332.544800 210.004761,343.207001 
	C216.732162,343.207001 223.032394,343.115387 229.328781,343.231781 
	C236.129211,343.357483 241.193130,340.625732 244.835907,333.940369 
z"/>
<path fill="#FFFBFB" opacity="1.000000" stroke="none" 
	d="
M106.692055,377.038635 
	C106.529549,352.840546 106.360199,329.052277 106.458878,305.265106 
	C106.485359,298.881927 109.787102,295.384125 115.911331,295.312042 
	C127.044182,295.180969 138.246414,294.903137 149.305267,295.924896 
	C166.429413,297.507050 176.846130,311.128693 176.096893,329.517426 
	C175.414749,346.259186 163.674988,358.254608 146.994949,359.008270 
	C140.518158,359.300903 134.017258,359.305145 127.535294,359.135742 
	C124.231354,359.049347 123.128372,360.209320 123.287003,363.450470 
	C123.489998,367.598053 123.428848,371.772644 123.221840,375.922668 
	C122.942467,381.523743 120.325180,384.545288 115.800117,384.912292 
	C111.438263,385.266052 108.236435,382.615112 106.692055,377.038635 
M145.641617,311.591461 
	C138.266602,311.591461 130.891586,311.591461 123.665680,311.591461 
	C123.665680,322.506927 123.665680,332.699005 123.665680,343.204071 
	C130.713638,343.204071 137.343903,343.301971 143.970139,343.179749 
	C152.614151,343.020325 159.222000,337.139313 159.954041,329.163269 
	C160.743729,320.559143 155.276367,313.480591 145.641617,311.591461 
z"/>
<path fill="#FFFCFC" opacity="1.000000" stroke="none" 
	d="
M319.663208,345.000061 
	C319.662415,355.326599 319.716827,365.153595 319.632904,374.979431 
	C319.601074,378.709076 319.075104,382.336121 315.236450,384.371185 
	C309.073212,387.638550 302.879303,383.679199 302.826874,376.094635 
	C302.694458,356.942139 302.777802,337.788116 302.774811,318.634705 
	C302.774536,316.840515 302.774811,315.046326 302.774811,312.534454 
	C297.003632,312.534454 291.733643,312.582245 286.465088,312.514404 
	C283.809631,312.480255 281.131592,312.415527 278.508698,312.045929 
	C274.469452,311.476746 272.382660,308.754089 272.102295,304.884705 
	C271.803528,300.761475 273.743774,297.839783 277.818420,296.615784 
	C278.919861,296.284943 280.103882,296.073364 281.250427,296.071411 
	C300.736877,296.038300 320.223663,295.987976 339.709717,296.082916 
	C345.374268,296.110504 348.526276,298.694061 349.071472,303.115784 
	C349.676697,308.024109 347.143219,311.769684 342.033173,312.075684 
	C334.913147,312.502045 327.748444,312.183044 319.663361,312.183044 
	C319.663361,323.365479 319.663361,333.932770 319.663208,345.000061 
z"/>
<path fill="#F15845" opacity="1.000000" stroke="none" 
	d="
M244.642426,334.281189 
	C241.193130,340.625732 236.129211,343.357483 229.328781,343.231781 
	C223.032394,343.115387 216.732162,343.207001 210.004761,343.207001 
	C210.004761,332.544800 210.004761,322.225128 210.004761,311.918091 
	C218.179810,311.918091 226.201859,311.172455 234.022034,312.110199 
	C243.416519,313.236725 248.155838,323.681488 244.642426,334.281189 
z"/>
<path fill="#F15A46" opacity="1.000000" stroke="none" 
	d="
M146.062164,311.656769 
	C155.276367,313.480591 160.743729,320.559143 159.954041,329.163269 
	C159.222000,337.139313 152.614151,343.020325 143.970139,343.179749 
	C137.343903,343.301971 130.713638,343.204071 123.665680,343.204071 
	C123.665680,332.699005 123.665680,322.506927 123.665680,311.591461 
	C130.891586,311.591461 138.266602,311.591461 146.062164,311.656769 
z"/>
</svg>